<svg xmlns="http://www.w3.org/2000/svg" viewBox="0 0 100 100"><path fill="#843131" fill-rule="nonzero" d="M91.41 40.632v-.13c0-.176-.044-.307-.044-.482l-.133-.526c0-.044-.045-.044-.045-.087-.045-.175-.134-.307-.223-.438v-.044a3.837 3.837 0 0 0-.267-.438l-.09-.087a2.849 2.849 0 0 0-.356-.394L71.541 19.621 52.829 1.236c-.134-.131-.267-.219-.401-.35L52.338.8c-.133-.088-.311-.176-.445-.263h-.044c-.134-.088-.312-.131-.446-.175-.044 0-.044-.044-.089-.044L50.78.186c-.179-.044-.312-.044-.49-.044H12.599c-2.228 0-4.01 1.75-4.01 3.94v91.924c0 2.188 1.782 3.94 4.01 3.94H87.446c2.227 0 4.01-1.752 4.01-3.94V40.764c-.045-.044-.045-.088-.045-.132zm-37.423-9.367V13.537l9.044 8.886-9.044 8.842zm14.702-3.327l9.044 8.886H59.69l9-8.886zM16.564 7.934h29.404v28.89H16.564V7.934zm0 36.77h29.404v47.275H16.564V44.703zM83.39 91.978H53.987V44.703h29.404V91.98z"/></svg>