<?xml version="1.0" encoding="utf-8"?>
<!-- Generator: Adobe Illustrator 19.2.1, SVG Export Plug-In . SVG Version: 6.00 Build 0)  -->
<svg version="1.1" id="Layer_1" xmlns="http://www.w3.org/2000/svg" xmlns:xlink="http://www.w3.org/1999/xlink" x="0px" y="0px"
	 viewBox="0 0 800 600" style="enable-background:new 0 0 800 600;" xml:space="preserve">
<style type="text/css">
	.st0{fill:#FF201E;}
	.st1{fill:#FFFFFF;}
</style>
<circle class="st0" cx="400" cy="300" r="225"/>
<path class="st1" d="M493,278.7c0-0.1,0-0.2,0-0.3c0-0.4-0.1-0.7-0.1-1.1c0,0,0,0,0,0c-0.1-0.4-0.2-0.8-0.3-1.2
	c0-0.1-0.1-0.1-0.1-0.2c-0.1-0.4-0.3-0.7-0.5-1c0,0,0,0,0-0.1c-0.2-0.4-0.4-0.7-0.6-1c-0.1-0.1-0.1-0.1-0.2-0.2
	c-0.2-0.3-0.5-0.6-0.8-0.9l0,0l-42-42l-42-42l0,0c-0.3-0.3-0.6-0.5-0.9-0.8c-0.1-0.1-0.1-0.1-0.2-0.2c-0.3-0.2-0.7-0.4-1-0.6
	c0,0-0.1,0-0.1,0c-0.3-0.2-0.7-0.3-1-0.4c-0.1,0-0.1-0.1-0.2-0.1c-0.4-0.1-0.8-0.2-1.2-0.3c0,0,0,0,0,0c-0.4-0.1-0.7-0.1-1.1-0.1
	c-0.1,0-0.2,0-0.3,0c-0.1,0-0.2,0-0.3,0h-84c-5,0-9,4-9,9v210c0,5,4,9,9,9h84h84c5,0,9-4,9-9V279C493,278.9,493,278.8,493,278.7z
	 M409,257.3v-40.5l20.3,20.3L409,257.3z M442,249.7l20.3,20.3h-40.5L442,249.7z M325,204h66v66h-66V204z M325,288h66v108h-66V288z
	 M475,396h-66V288h66V396z"/>
</svg>
