<?xml version="1.0" standalone="no"?>
<!DOCTYPE svg PUBLIC "-//W3C//DTD SVG 20010904//EN"
 "http://www.w3.org/TR/2001/REC-SVG-20010904/DTD/svg10.dtd">
<svg version="1.0" xmlns="http://www.w3.org/2000/svg"
 width="1000.000000pt" height="1000.000000pt" viewBox="0 0 1000.000000 1000.000000"
 preserveAspectRatio="xMidYMid meet">
<metadata>
Created by potrace 1.11, written by Peter Selinger 2001-2013
</metadata>
<g transform="translate(0.000000,1000.000000) scale(0.100000,-0.100000)"
fill="#000000" stroke="none">
<path d="M0 5000 l0 -5000 5000 0 5000 0 0 5000 0 5000 -5000 0 -5000 0 0
-5000z m5065 2656 c429 -60 774 -176 1095 -366 310 -183 612 -472 805 -770
429 -661 547 -1545 314 -2350 -84 -290 -221 -563 -407 -813 -87 -118 -291
-330 -407 -424 -315 -255 -716 -441 -1135 -527 -299 -61 -260 -59 -1427 -63
l-1073 -4 0 2671 0 2671 1058 -4 c925 -3 1072 -6 1177 -21z"/>
<path d="M3500 5011 l0 -2071 673 0 c697 0 783 4 980 45 351 73 666 232 916
462 347 319 568 783 622 1301 17 164 6 514 -20 667 -141 827 -647 1397 -1414
1594 -245 63 -255 64 -1039 68 l-718 4 0 -2070z"/>
</g>
</svg>
