<svg xmlns="http://www.w3.org/2000/svg" viewBox="0 0 1000 1000"><title>safari-pinned-tab</title><rect width="1000" height="1000"/><path d="M771.71,440.81v-3.94l-.65-3.28v-.66a3.39,3.39,0,0,0-1.32-2.62h0a9,9,0,0,0-2-2.63l-.66-.66c-.66-.65-1.31-2-2.63-2.62L641.11,303,518.38,182.22c-.66-.66-2-1.31-2.63-2.63l-.65-.65c-.66-.66-2-1.31-2.63-2h0c-.66-.66-2-.66-2.63-1.31h-.65l-3.28-.66H254.54c-14.44,0-26.25,11.81-26.25,25.6V804.4c0,14.44,11.81,25.6,26.25,25.6H745.46c14.44,0,26.25-11.81,26.25-25.6V440.81Zm-245.46-61V263l59.07,58.41Zm96.48-22.32,59.07,58.42H563.66l59.07-58.42ZM280.79,226.19h193V415.87h-193Zm0,241.53h193V778.15h-193V467.72ZM719.21,778.15h-193V467.72h193V778.15Z" fill="#fff"/></svg>