<svg xmlns="http://www.w3.org/2000/svg" viewBox="0 0 800 600"><circle cx="400" cy="300" r="225" fill="#ff201e"/><path d="M493 278.7v-.3c0-.4-.1-.7-.1-1.1l-.3-1.2c0-.1-.1-.1-.1-.2-.1-.4-.3-.7-.5-1v-.1c-.2-.4-.4-.7-.6-1l-.2-.2c-.2-.3-.5-.6-.8-.9l-42-42-42-42c-.3-.3-.6-.5-.9-.8l-.2-.2c-.3-.2-.7-.4-1-.6h-.1c-.3-.2-.7-.3-1-.4-.1 0-.1-.1-.2-.1l-1.2-.3c-.4-.1-.7-.1-1.1-.1h-84.6c-5 0-9 4-9 9v210c0 5 4 9 9 9h168c5 0 9-4 9-9V279c-.1-.1-.1-.2-.1-.3zm-84-21.4v-40.5l20.3 20.3-20.3 20.2zm33-7.6l20.3 20.3h-40.5l20.2-20.3zM325 204h66v66h-66v-66zm0 84h66v108h-66V288zm150 108h-66V288h66v108z" fill="#fff"/></svg>