<?xml version="1.0" encoding="utf-8"?>
<!DOCTYPE svg PUBLIC "-//W3C//DTD SVG 1.1//EN" "http://www.w3.org/Graphics/SVG/1.1/DTD/svg11.dtd">
<svg 
  version="1.1" 
  xmlns="http://www.w3.org/2000/svg" 
  xmlns:xlink="http://www.w3.org/1999/xlink" 
  x="0px" 
  y="0px"
  width="100px" 
  height="100px" 
  viewBox="0 0 100 100" 
  enable-background="new 0 0 100 100" 
  xml:space="preserve">
  <g>
    <path fill="#44B74A" d="M76.92,32.34c-3.454,0-6.671,1.004-9.385,2.729L50.439,47.625l-9.011-6.617
    c-0.543,0.881-1.09,1.757-1.613,2.664c-0.126,0.218-0.243,0.439-0.367,0.657l7.532,5.531L31.175,61.466
    c-2.166,1.35-4.658,2.064-7.217,2.064c-7.537,0-13.67-6.132-13.67-13.67c0-7.538,6.132-13.67,13.67-13.67
    c2.559,0,5.052,0.713,7.217,2.064l1.571,1.153c0.649-1.122,1.322-2.218,2.001-3.306l-1.404-1.031
    c-2.713-1.726-5.931-2.729-9.385-2.729c-9.675,0-17.519,7.844-17.519,17.519s7.843,17.519,17.519,17.519
    c3.454,0,6.672-1.004,9.385-2.729l17.096-12.555l9.046,6.643c0.554-0.908,1.107-1.819,1.654-2.768
    c0.108-0.188,0.206-0.375,0.313-0.563l-7.553-5.547l15.804-11.606c2.166-1.35,4.659-2.064,7.217-2.064
    c7.538,0,13.67,6.132,13.67,13.67c0,7.538-6.132,13.67-13.67,13.67c-2.559,0-5.051-0.713-7.217-2.064l-1.548-1.137
    c-0.656,1.133-1.32,2.234-1.987,3.316l1.368,1.004c2.714,1.726,5.931,2.729,9.385,2.729c9.675,0,17.519-7.844,17.519-17.519
    C94.439,40.184,86.596,32.34,76.92,32.34z"/>
  </g>
</svg>
