<svg xmlns="http://www.w3.org/2000/svg" width="100" height="100" viewBox="0 0 100 100"><path fill="#44B74A" d="M76.92 32.34a17.436 17.436 0 0 0-9.385 2.729L50.439 47.625l-9.011-6.617c-.543.881-1.09 1.757-1.613 2.664-.126.218-.243.439-.367.657l7.532 5.531-15.805 11.606a13.622 13.622 0 0 1-7.217 2.064c-7.537 0-13.67-6.132-13.67-13.67s6.132-13.67 13.67-13.67c2.559 0 5.052.713 7.217 2.064l1.571 1.153a115.049 115.049 0 0 1 2.001-3.306l-1.404-1.031a17.425 17.425 0 0 0-9.385-2.729c-9.675 0-17.519 7.844-17.519 17.519s7.843 17.519 17.519 17.519c3.454 0 6.672-1.004 9.385-2.729l17.096-12.555 9.046 6.643c.554-.908 1.107-1.819 1.654-2.768.108-.188.206-.375.313-.563l-7.553-5.547 15.804-11.606a13.624 13.624 0 0 1 7.217-2.064c7.538 0 13.67 6.132 13.67 13.67s-6.132 13.67-13.67 13.67c-2.559 0-5.051-.713-7.217-2.064l-1.548-1.137a139.73 139.73 0 0 1-1.987 3.316l1.368 1.004a17.427 17.427 0 0 0 9.385 2.729c9.675 0 17.519-7.844 17.519-17.519-.001-9.675-7.844-17.519-17.52-17.519z"/></svg>